<?xml version="1.0" encoding="UTF-8" standalone="no"?>
<svg width="20px" height="20px" viewBox="0 0 20 20" version="1.1" xmlns="http://www.w3.org/2000/svg" xmlns:xlink="http://www.w3.org/1999/xlink" xmlns:sketch="http://www.bohemiancoding.com/sketch/ns">
    <!-- Generator: sketchtool 3.4 (375) - http://www.bohemiancoding.com/sketch -->
    <title>Icon-2</title>
    <desc>Created with sketchtool.</desc>
    <defs></defs>
    <g id="Final" stroke="none" stroke-width="1" fill="none" fill-rule="evenodd" sketch:type="MSPage">
        <g id="5-Dashboard" sketch:type="MSArtboardGroup" transform="translate(-22.000000, -243.000000)" fill="#FFFFFF" opacity="0.4">
            <g id="Sidebar" sketch:type="MSLayerGroup" transform="translate(0.000000, 80.000000)">
                <g id="Group" transform="translate(22.000000, 130.000000)" sketch:type="MSShapeGroup">
                    <g id="Risk-Indicators-+-Shape-+-Shape" transform="translate(0.000000, 33.000000)">
                        <path d="M16.25,0 L3.75,0 C1.67875,0 0,1.68 0,3.75 L0,16.25 C0,18.32125 1.67875,20 3.75,20 L16.25,20 C18.32125,20 20,18.32125 20,16.25 L20,3.75 C20,1.68 18.32125,0 16.25,0 L16.25,0 Z M17.5,16.25 C17.5,16.94125 16.94125,17.5 16.25,17.5 L3.75,17.5 C3.06,17.5 2.5,16.94125 2.5,16.25 L2.5,3.75 C2.5,3.06 3.06,2.5 3.75,2.5 L16.25,2.5 C16.94125,2.5 17.5,3.06 17.5,3.75 L17.5,16.25 L17.5,16.25 Z M13.07375,6.4625 L8.655,10.88125 L6.88625,9.11375 C6.39875,8.625 5.6075,8.625 5.11875,9.11375 C4.63,9.6025 4.63,10.39375 5.11875,10.88125 L7.77125,13.5325 C8.25875,14.02125 9.05,14.02125 9.53875,13.5325 L14.84125,8.23 C15.33,7.74125 15.33,6.95125 14.84125,6.4625 C14.3525,5.97375 13.5625,5.97375 13.07375,6.4625 L13.07375,6.4625 Z" id="Icon-2"></path>
                    </g>
                </g>
            </g>
        </g>
    </g>
</svg>