<?xml version="1.0" encoding="UTF-8" standalone="no"?>
<svg width="16px" height="17px" viewBox="0 0 16 17" version="1.1" xmlns="http://www.w3.org/2000/svg" xmlns:xlink="http://www.w3.org/1999/xlink" xmlns:sketch="http://www.bohemiancoding.com/sketch/ns">
    <!-- Generator: sketchtool 3.4 (375) - http://www.bohemiancoding.com/sketch -->
    <title>Icon-Attach</title>
    <desc>Created with sketchtool.</desc>
    <defs></defs>
    <g id="Final" stroke="none" stroke-width="1" fill="none" fill-rule="evenodd" sketch:type="MSPage">
        <g id="5-Dashboard" sketch:type="MSArtboardGroup" transform="translate(-302.000000, -1395.000000)" fill="#FFFFFF">
            <g id="Notes" sketch:type="MSLayerGroup" transform="translate(270.000000, 780.000000)">
                <g id="Group" transform="translate(20.000000, 497.000000)" sketch:type="MSShapeGroup">
                    <g transform="translate(0.000000, 106.000000)" id="Icon-Attach">
                        <path d="M17.2093023,28.812093 C16.5330233,28.812093 15.8736744,28.6837209 15.2494884,28.4305116 C14.6027907,28.168186 14.0228837,27.7832558 13.5257674,27.2863256 C13.0286512,26.7893953 12.6437209,26.2093023 12.3815814,25.5626047 C12.1283721,24.9384186 12,24.2790698 12,23.6027907 C12,22.9265116 12.1283721,22.2669767 12.3815814,21.6427907 C12.6437209,20.996093 13.0288372,20.416186 13.5257674,19.9190698 L13.5270698,19.9177674 L20.3912558,13.0865116 C20.7451163,12.7328372 21.1581395,12.4586047 21.6187907,12.271814 C22.0632558,12.0915349 22.5326512,12 23.0141395,12 C23.4954419,12 23.9648372,12.0915349 24.4094884,12.271814 C24.8701395,12.4586047 25.2829767,12.7328372 25.6370233,13.0865116 C25.9908837,13.4403721 26.2649302,13.8533953 26.451907,14.3140465 C26.632186,14.7586977 26.7235349,15.228093 26.7235349,15.7095814 C26.7235349,16.1910698 26.632186,16.6604651 26.451907,17.1051163 C26.2649302,17.5657674 25.9908837,17.9786047 25.6370233,18.3326512 L18.787907,25.1813953 C18.5748837,25.3944186 18.3265116,25.5592558 18.0489302,25.672 C17.7813953,25.7804651 17.4987907,25.8355349 17.2091163,25.8355349 C16.9194419,25.8355349 16.6370233,25.7804651 16.3693023,25.672 C16.091907,25.5594419 15.8433488,25.3944186 15.6303256,25.1813953 C15.4173023,24.9685581 15.2524651,24.72 15.139907,24.4426047 C15.031814,24.1748837 14.9767442,23.8924651 14.9767442,23.6027907 C14.9767442,23.3131163 15.031814,23.0305116 15.1402791,22.7629767 C15.2526512,22.4855814 15.4176744,22.2368372 15.6306977,22.023814 L21.9453023,15.7093953 C22.235907,15.4187907 22.7071628,15.4187907 22.9977674,15.7093953 C23.2883721,16 23.2883721,16.4712558 22.9977674,16.7618605 L16.6831628,23.0762791 C16.5425116,23.2171163 16.4651163,23.404093 16.4651163,23.6027907 C16.4651163,23.8014884 16.5425116,23.9882791 16.6831628,24.1289302 C16.8236279,24.2695814 17.0106047,24.3469767 17.2093023,24.3469767 C17.408,24.3469767 17.5949767,24.2695814 17.7354419,24.1289302 L24.5845581,17.28 C25.004093,16.8604651 25.2351628,16.3026977 25.2351628,15.7095814 C25.2351628,15.1164651 25.004093,14.5585116 24.5845581,14.1391628 C24.1652093,13.7194419 23.6074419,13.4883721 23.0141395,13.4883721 C22.4208372,13.4883721 21.8628837,13.7194419 21.4437209,14.1389767 L21.4424186,14.1402791 L14.5776744,20.972093 C14.2225116,21.3274419 13.9475349,21.7413953 13.7605581,22.2022326 C13.580093,22.647814 13.4883721,23.1192558 13.4883721,23.6027907 C13.4883721,24.0863256 13.580093,24.5575814 13.7607442,25.0031628 C13.947907,25.4643721 14.2226977,25.8783256 14.5784186,26.2336744 C14.9337674,26.5890233 15.347907,26.864186 15.8087442,27.0511628 C16.2545116,27.232 16.7257674,27.3237209 17.2093023,27.3237209 C17.6928372,27.3237209 18.1642791,27.232 18.6098605,27.0511628 C19.0710698,26.864186 19.4848372,26.5892093 19.8403721,26.2336744 L26.6813023,19.3927442 C26.971907,19.1021395 27.4431628,19.1021395 27.7335814,19.3927442 C28.024186,19.6833488 28.024186,20.1546047 27.7335814,20.4452093 L20.8926512,27.2861395 C20.3957209,27.7830698 19.815814,28.168 19.1689302,28.4303256 C18.5451163,28.6837209 17.8855814,28.812093 17.2093023,28.812093 L17.2093023,28.812093 Z"></path>
                    </g>
                </g>
            </g>
        </g>
    </g>
</svg>