<?xml version="1.0" encoding="UTF-8" standalone="no"?>
<svg width="20px" height="20px" viewBox="0 0 20 20" version="1.1" xmlns="http://www.w3.org/2000/svg" xmlns:xlink="http://www.w3.org/1999/xlink" xmlns:sketch="http://www.bohemiancoding.com/sketch/ns">
    <!-- Generator: sketchtool 3.4 (375) - http://www.bohemiancoding.com/sketch -->
    <title>Icon-8</title>
    <desc>Created with sketchtool.</desc>
    <defs></defs>
    <g id="Final" stroke="none" stroke-width="1" fill="none" fill-rule="evenodd" sketch:type="MSPage">
        <g id="5-Dashboard" sketch:type="MSArtboardGroup" transform="translate(-22.000000, -441.000000)" fill="#FFFFFF" opacity="0.4">
            <g id="Sidebar" sketch:type="MSLayerGroup" transform="translate(0.000000, 80.000000)">
                <g id="Group" transform="translate(22.000000, 130.000000)" sketch:type="MSShapeGroup">
                    <g id="Risk-Indicators-+-Shape-+-Shape" transform="translate(0.000000, 231.000000)">
                        <path d="M3.75,14 L16.25,14 L16.25,12.75 L3.75,12.75 L3.75,14 L3.75,14 Z M3.75,10.5 L16.25,10.5 L16.25,9.25 L3.75,9.25 L3.75,10.5 L3.75,10.5 Z M16.25,0 L3.75,0 C1.67875,0 0,1.67875 0,3.75 L0,16.25 C0,18.32125 1.67875,20 3.75,20 L16.25,20 C18.32125,20 20,18.32125 20,16.25 L20,3.75 C20,1.67875 18.32125,0 16.25,0 L16.25,0 Z M17.5,16.25 C17.5,16.94125 16.94125,17.5 16.25,17.5 L3.75,17.5 C3.06,17.5 2.5,16.94125 2.5,16.25 L2.5,3.75 C2.5,3.06 3.06,2.5 3.75,2.5 L16.25,2.5 C16.94125,2.5 17.5,3.06 17.5,3.75 L17.5,16.25 L17.5,16.25 Z M3.75,7 L16.25,7 L16.25,5.75 L3.75,5.75 L3.75,7 L3.75,7 Z" id="Icon-8"></path>
                    </g>
                </g>
            </g>
        </g>
    </g>
</svg>