<?xml version="1.0" encoding="UTF-8" standalone="no"?>
<svg width="20px" height="21px" viewBox="0 0 20 21" version="1.1" xmlns="http://www.w3.org/2000/svg" xmlns:xlink="http://www.w3.org/1999/xlink" xmlns:sketch="http://www.bohemiancoding.com/sketch/ns">
    <!-- Generator: sketchtool 3.4 (375) - http://www.bohemiancoding.com/sketch -->
    <title>Icon-Print</title>
    <desc>Created with sketchtool.</desc>
    <defs></defs>
    <g id="Final" stroke="none" stroke-width="1" fill="none" fill-rule="evenodd" sketch:type="MSPage">
        <g id="5-Dashboard" sketch:type="MSArtboardGroup" transform="translate(-22.000000, -491.000000)" fill="#FFFFFF" opacity="0.4">
            <g id="Sidebar" sketch:type="MSLayerGroup" transform="translate(0.000000, 80.000000)">
                <g id="Group" transform="translate(22.000000, 130.000000)" sketch:type="MSShapeGroup">
                    <g id="Risk-Indicators-+-Shape-+-Shape" transform="translate(0.000000, 281.460369)">
                        <path d="M16.25,17.5 L16.25,18.75 C16.25,19.44125 15.69125,20 15,20 L5,20 C4.31,20 3.75,19.44125 3.75,18.75 L3.75,17.5 C1.67875,17.5 0,15.82125 0,13.75 L0,10 C0,7.92875 1.67875,6.25 3.75,6.25 L3.75,1.25 C3.75,0.55875 4.31,0 5,0 L15,0 C15.69125,0 16.25,0.55875 16.25,1.25 L16.25,6.25 C18.32,6.25 20,7.92875 20,10 L20,13.75 C20,15.82125 18.32,17.5 16.25,17.5 L16.25,17.5 Z M5,18.75 L15,18.75 L15,13.75 L5,13.75 L5,18.75 L5,18.75 Z M15,1.25 L5,1.25 L5,6.25 L6.25,6.25 L6.25,2.5 L13.75,2.5 L13.75,6.25 L15,6.25 L15,1.25 L15,1.25 Z M7.5,3.75 L7.5,6.25 L12.5,6.25 L12.5,3.75 L7.5,3.75 L7.5,3.75 Z M15,8.75 L13.75,8.75 L13.75,10 L15,10 L15,8.75 L15,8.75 Z M15,11.25 L5,11.25 C3.62,11.25 2.5,12.37 2.5,13.75 L2.5,15 L3.75,15 L3.75,13.75 C3.75,13.05875 4.31,12.5 5,12.5 L15,12.5 C15.69125,12.5 16.25,13.05875 16.25,13.75 L16.25,15 L17.5,15 L17.5,13.75 C17.5,12.37 16.38,11.25 15,11.25 L15,11.25 Z M17.5,8.75 L16.25,8.75 L16.25,10 L17.5,10 L17.5,8.75 L17.5,8.75 Z" id="Icon-Print"></path>
                    </g>
                </g>
            </g>
        </g>
    </g>
</svg>