<?xml version="1.0" encoding="UTF-8" standalone="no"?>
<svg width="10px" height="10px" viewBox="0 0 10 10" version="1.1" xmlns="http://www.w3.org/2000/svg" xmlns:xlink="http://www.w3.org/1999/xlink" xmlns:sketch="http://www.bohemiancoding.com/sketch/ns">
    <!-- Generator: Sketch 3.5.2 (25235) - http://www.bohemiancoding.com/sketch -->
    <title>Icon-TagDelete</title>
    <desc>Created with Sketch.</desc>
    <defs></defs>
    <g id="Page-1" stroke="none" stroke-width="1" fill="none" fill-rule="evenodd" sketch:type="MSPage">
        <g id="FIFA5-Top-Global-Influencers" sketch:type="MSArtboardGroup" transform="translate(-863.000000, -312.000000)" fill="#B9C3CA">
            <g id="Card-1" sketch:type="MSLayerGroup" transform="translate(690.000000, 180.000000)">
                <g id="Tags" transform="translate(95.000000, 127.000000)" sketch:type="MSShapeGroup">
                    <g id="Tag">
                        <g id="Rectangle-162-+-Filter-by-Severity">
                            <path d="M83,15 C85.7614237,15 88,12.7614237 88,10 C88,7.23857625 85.7614237,5 83,5 C80.2385763,5 78,7.23857625 78,10 C78,12.7614237 80.2385763,15 83,15 Z M83.6958675,10 L84.8544309,8.84143659 C85.0488357,8.64703177 85.0478051,8.33651189 84.8556466,8.14435339 C84.6621484,7.9508552 84.3513933,7.95273919 84.1585634,8.14556911 L83,9.30413252 L81.8414366,8.14556911 C81.6470318,7.95116429 81.3365119,7.9521949 81.1443534,8.14435339 C80.9508552,8.33785159 80.9527392,8.64860667 81.1455691,8.84143659 L82.3041325,10 L81.1455691,11.1585634 C80.9511643,11.3529682 80.9521949,11.6634881 81.1443534,11.8556466 C81.3378516,12.0491448 81.6486067,12.0472608 81.8414366,11.8544309 L83,10.6958675 L84.1585634,11.8544309 C84.3529682,12.0488357 84.6634881,12.0478051 84.8556466,11.8556466 C85.0491448,11.6621484 85.0472608,11.3513933 84.8544309,11.1585634 L83.6958675,10 Z" id="Icon-TagDelete"></path>
                        </g>
                    </g>
                </g>
            </g>
        </g>
    </g>
</svg>