<?xml version="1.0" encoding="UTF-8" standalone="no"?>
<svg width="32px" height="40px" viewBox="0 0 32 40" version="1.1" xmlns="http://www.w3.org/2000/svg" xmlns:xlink="http://www.w3.org/1999/xlink" xmlns:sketch="http://www.bohemiancoding.com/sketch/ns">
    <!-- Generator: Sketch 3.4.4 (17249) - http://www.bohemiancoding.com/sketch -->
    <title>Icon-PDF-Hover</title>
    <desc>Created with Sketch.</desc>
    <defs>
        <path id="path-1" d="M32,38.4181856 C32,39.2916061 31.3516015,40 30.5507242,40 L1.45061823,40 C0.648957843,40 0,39.2916061 0,38.4181856 L0,1.58061536 C0,0.707085846 0.648957843,0 1.45061823,0 L24.4514602,0 L32,8.36545667 L32,38.4181856 Z"></path>
    </defs>
    <g id="Page-1" stroke="none" stroke-width="1" fill="none" fill-rule="evenodd" sketch:type="MSPage">
        <g id="Icon-PDF-Hover" sketch:type="MSLayerGroup">
            <g id="Shape">
                <use fill="#EA4B36" sketch:type="MSShapeGroup" xlink:href="#path-1"></use>
                <use fill-opacity="0.5" fill="#000000" xlink:href="#path-1"></use>
            </g>
            <path d="M24,0 L24,7.07149189 C24,7.08962959 24.0002884,7.10776617 24.0008651,7.12589489 C24.0312175,8.08004131 24.837202,8.82917279 25.8010819,8.79912689 L32,8.79912689 L24,0 Z" id="Path-18" fill="#C33824" sketch:type="MSShapeGroup"></path>
            <path d="M7.48876138,32 L7.48859281,32 C7.1750602,32 6.8738329,31.8970773 6.61735985,31.7025731 C5.67886909,30.9903856 5.55286606,30.1977872 5.61245412,29.658104 C5.77621591,28.1741244 7.59032235,26.6200516 11.0056365,25.037157 C12.3607379,22.0325311 13.6503515,18.3297875 14.4192649,15.2362233 C13.5198815,13.2556226 12.6462043,10.6865633 13.2832149,9.17930461 C13.5063119,8.65138886 13.8987334,8.27977574 14.4180007,8.10462811 C14.6238197,8.03521712 14.8248345,8 15.0153983,8 C15.4697677,8 15.8757588,8.20081434 16.1586967,8.56552048 C16.424778,8.90848238 17.2255504,9.94069368 16.0203883,15.0727579 C17.2350744,17.6107783 18.9559638,20.196295 20.6052971,21.9667868 C21.7867756,21.7502825 22.8032281,21.6407086 23.6313925,21.6407086 C25.0425421,21.6407086 25.8980142,21.9736937 26.2463556,22.6586796 C26.5349405,23.2259055 26.4166072,23.8883796 25.8946428,24.6275981 C25.3929064,25.3382507 24.7010276,25.7138715 23.8937654,25.7138715 C22.7977497,25.7138715 21.5222114,25.013281 20.0986722,23.6306039 C17.5416958,24.1708841 14.5561405,25.1358162 12.1431193,26.2033299 C11.3896296,27.8208446 10.6677461,29.1237076 9.99567375,30.0788335 C9.07370245,31.3895415 8.27697563,32 7.48876138,32 L7.48876138,32 Z M9.8871173,27.3271227 C7.96091452,28.4220086 7.1760716,29.3216227 7.12010771,29.8284764 C7.11092087,29.912213 7.08656309,30.1327251 7.50814646,30.4597412 C7.64240922,30.4166791 8.42674645,30.0549575 9.8871173,27.3271227 L9.8871173,27.3271227 Z M22.0301848,23.2951459 C22.7642894,23.8666354 23.413521,24.1791554 23.8939339,24.1791554 C24.1049785,24.1791554 24.3827751,24.1287599 24.6604032,23.7355731 C24.7948345,23.5451619 24.8471742,23.4226268 24.8674864,23.3574794 C24.7569072,23.2977893 24.4327549,23.1756806 23.6315611,23.1756806 C23.1766016,23.1756806 22.6358422,23.2163551 22.0301848,23.2951459 L22.0301848,23.2951459 Z M15.4445671,17.2755761 C14.7998025,19.5314332 13.9491346,21.9664457 13.034833,24.1720779 C14.9179672,23.4322625 16.9656217,22.7873542 18.8887903,22.3301285 C17.6721658,20.9007227 16.4568055,19.1156494 15.4445671,17.2755761 L15.4445671,17.2755761 Z M14.9848879,9.53812701 C14.9649128,9.54136733 14.9363409,9.54784796 14.8978236,9.56080923 C14.8097479,9.59056897 14.7386973,9.63960008 14.6781822,9.78285617 C14.446404,10.3314076 14.6292138,11.3734251 14.9842136,12.4932103 C15.2783611,10.5634313 15.1221005,9.74397237 14.9848879,9.53812701 L14.9848879,9.53812701 Z" id="Shape" fill="#FFFFFF" sketch:type="MSShapeGroup"></path>
        </g>
    </g>
</svg>