<?xml version="1.0" encoding="UTF-8" standalone="no"?>
<svg width="32px" height="32px" viewBox="0 0 32 32" version="1.1" xmlns="http://www.w3.org/2000/svg" xmlns:xlink="http://www.w3.org/1999/xlink" xmlns:sketch="http://www.bohemiancoding.com/sketch/ns">
    <!-- Generator: sketchtool 3.4.4 (395) - http://www.bohemiancoding.com/sketch -->
    <title>Icon-Downward</title>
    <desc>Created with sketchtool.</desc>
    <defs>
        <filter x="-50%" y="-50%" width="200%" height="200%" filterUnits="objectBoundingBox" id="filter-1">
            <feOffset dx="0" dy="2" in="SourceAlpha" result="shadowOffsetOuter1"></feOffset>
            <feGaussianBlur stdDeviation="2" in="shadowOffsetOuter1" result="shadowBlurOuter1"></feGaussianBlur>
            <feColorMatrix values="0 0 0 0 0.290196078   0 0 0 0 0.290196078   0 0 0 0 0.290196078  0 0 0 0.14 0" in="shadowBlurOuter1" type="matrix" result="shadowMatrixOuter1"></feColorMatrix>
            <feMerge>
                <feMergeNode in="shadowMatrixOuter1"></feMergeNode>
                <feMergeNode in="SourceGraphic"></feMergeNode>
            </feMerge>
        </filter>
    </defs>
    <g id="Use-Case-3" stroke="none" stroke-width="1" fill="none" fill-rule="evenodd" sketch:type="MSPage">
        <g id="FIFA1-Dash" sketch:type="MSArtboardGroup" transform="translate(-1127.000000, -509.000000)">
            <g id="Top-Global-Issues" sketch:type="MSLayerGroup" transform="translate(1110.000000, 440.000000)">
                <g id="Group" transform="translate(20.000000, 66.000000)" sketch:type="MSShapeGroup">
                    <g id="Rectangle-162-+-2,432" transform="translate(1.000000, 0.000000)">
                        <g id="Icon-Downward" transform="translate(0.000000, 5.000000)">
                            <ellipse id="Oval-231" stroke="#E76959" stroke-width="2" fill="#0B4487" filter="url(#filter-1)" cx="12" cy="11.994003" rx="12" ry="11.994003"></ellipse>
                            <path d="M6.96193763,7.94599104 L14.6727104,15.6567638 L9.4342498,15.6580731 C9.04777353,15.6581697 8.73445647,15.9714868 8.73435988,16.357963 C8.73426328,16.7444393 9.04754744,17.0577235 9.43402371,17.0576269 L16.3618953,17.0558953 C16.7483716,17.0557987 17.0618124,16.7423579 17.0617852,16.3560054 L17.0635168,9.42813381 C17.0635651,9.23489568 16.9854228,9.05998646 16.8586497,8.93321336 C16.732124,8.80668762 16.5570911,8.72842168 16.3638529,8.72846998 C15.9773767,8.72856658 15.6639359,9.04200738 15.663963,9.4283599 L15.6626537,14.6668205 L7.95188094,6.95604773 C7.67866945,6.68283624 7.23553309,6.682947 6.96218499,6.95629509 C6.6888369,7.22964319 6.68872614,7.67277955 6.96193763,7.94599104 L6.96193763,7.94599104 L6.96193763,7.94599104 Z" id="Shape" fill="#E76959"></path>
                        </g>
                    </g>
                </g>
            </g>
        </g>
    </g>
</svg>