<?xml version="1.0" encoding="UTF-8" standalone="no"?>
<svg width="20px" height="20px" viewBox="0 0 20 20" version="1.1" xmlns="http://www.w3.org/2000/svg" xmlns:xlink="http://www.w3.org/1999/xlink" xmlns:sketch="http://www.bohemiancoding.com/sketch/ns">
    <!-- Generator: sketchtool 3.4 (375) - http://www.bohemiancoding.com/sketch -->
    <title>Icon-1</title>
    <desc>Created with sketchtool.</desc>
    <defs></defs>
    <g id="Final" stroke="none" stroke-width="1" fill="none" fill-rule="evenodd" sketch:type="MSPage">
        <g id="5-Dashboard" sketch:type="MSArtboardGroup" transform="translate(-22.000000, -210.000000)" fill="#FFFFFF" opacity="0.4">
            <g id="Sidebar" sketch:type="MSLayerGroup" transform="translate(0.000000, 80.000000)">
                <g id="Group" transform="translate(22.000000, 130.000000)" sketch:type="MSShapeGroup">
                    <g id="Risk-Indicators-+-Shape-+-Shape">
                        <path d="M7.5,5 L6.25,5 C5.56,5 5,5.55875 5,6.25 L5,13.75 C5,14.44125 5.56,15 6.25,15 L7.5,15 C8.19,15 8.75,14.44125 8.75,13.75 L8.75,6.25 C8.75,5.55875 8.19,5 7.5,5 L7.5,5 Z M7.5,13.75 L6.25,13.75 L6.25,6.25 L7.5,6.25 L7.5,13.75 L7.5,13.75 Z M13.75,10 L12.5,10 C11.80875,10 11.25,10.55875 11.25,11.25 L11.25,13.75 C11.25,14.44125 11.80875,15 12.5,15 L13.75,15 C14.44125,15 15,14.44125 15,13.75 L15,11.25 C15,10.55875 14.44125,10 13.75,10 L13.75,10 Z M13.75,13.75 L12.5,13.75 L12.5,11.25 L13.75,11.25 L13.75,13.75 L13.75,13.75 Z M16.25,0 L3.75,0 C1.67875,0 0,1.67875 0,3.75 L0,16.25 C0,18.32125 1.67875,20 3.75,20 L16.25,20 C18.32,20 20,18.32125 20,16.25 L20,3.75 C20,1.67875 18.32,0 16.25,0 L16.25,0 Z M17.5,16.25 C17.5,16.94125 16.94125,17.5 16.25,17.5 L3.75,17.5 C3.06,17.5 2.5,16.94125 2.5,16.25 L2.5,3.75 C2.5,3.05875 3.06,2.5 3.75,2.5 L16.25,2.5 C16.94125,2.5 17.5,3.05875 17.5,3.75 L17.5,16.25 L17.5,16.25 Z" id="Icon-1"></path>
                    </g>
                </g>
            </g>
        </g>
    </g>
</svg>