<?xml version="1.0" encoding="UTF-8" standalone="no"?>
<svg width="20px" height="20px" viewBox="0 0 20 20" version="1.1" xmlns="http://www.w3.org/2000/svg" xmlns:xlink="http://www.w3.org/1999/xlink" xmlns:sketch="http://www.bohemiancoding.com/sketch/ns">
    <!-- Generator: sketchtool 3.4 (375) - http://www.bohemiancoding.com/sketch -->
    <title>Icon-6</title>
    <desc>Created with sketchtool.</desc>
    <defs></defs>
    <g id="Final" stroke="none" stroke-width="1" fill="none" fill-rule="evenodd" sketch:type="MSPage">
        <g id="5-Dashboard" sketch:type="MSArtboardGroup" transform="translate(-22.000000, -375.000000)" fill="#FFFFFF" opacity="0.4">
            <g id="Sidebar" sketch:type="MSLayerGroup" transform="translate(0.000000, 80.000000)">
                <g id="Group" transform="translate(22.000000, 130.000000)" sketch:type="MSShapeGroup">
                    <g id="Risk-Indicators-+-Shape-+-Shape" transform="translate(0.000000, 165.000000)">
                        <path d="M3.75,10 L16.25,10 L16.25,8.75 L3.75,8.75 L3.75,10 L3.75,10 Z M3.75,7.5 L16.25,7.5 L16.25,6.25 L3.75,6.25 L3.75,7.5 L3.75,7.5 Z M16.25,0 L3.75,0 C1.67875,0 0,1.67875 0,3.75 L0,16.25 C0,18.32125 1.67875,20 3.75,20 L16.25,20 C18.32125,20 20,18.32125 20,16.25 L20,3.75 C20,1.67875 18.32125,0 16.25,0 L16.25,0 Z M17.5,16.25 C17.5,16.94125 16.94125,17.5 16.25,17.5 L3.75,17.5 C3.06,17.5 2.5,16.94125 2.5,16.25 L2.5,3.75 C2.5,3.06 3.06,2.5 3.75,2.5 L16.25,2.5 C16.94125,2.5 17.5,3.06 17.5,3.75 L17.5,16.25 L17.5,16.25 Z M3.75,5 L16.25,5 L16.25,3.75 L3.75,3.75 L3.75,5 L3.75,5 Z M10.88375,11.6175 C10.64,11.37375 10.32,11.25 10,11.25 C9.68,11.25 9.36,11.37375 9.11625,11.6175 L6.61625,14.1175 C6.26,14.47375 6.1525,15.01 6.345,15.47875 C6.5375,15.94625 6.995,16.25 7.5,16.25 L12.5,16.25 C13.005,16.25 13.4625,15.94625 13.655,15.47875 C13.8475,15.0125 13.74125,14.4725 13.38375,14.11625 L10.88375,11.6175 L10.88375,11.6175 Z" id="Icon-6"></path>
                    </g>
                </g>
            </g>
        </g>
    </g>
</svg>