<?xml version="1.0" encoding="UTF-8" standalone="no"?>
<svg width="16px" height="16px" viewBox="0 0 16 16" version="1.1" xmlns="http://www.w3.org/2000/svg" xmlns:xlink="http://www.w3.org/1999/xlink" xmlns:sketch="http://www.bohemiancoding.com/sketch/ns">
    <!-- Generator: sketchtool 3.4 (375) - http://www.bohemiancoding.com/sketch -->
    <title>Icon-Move</title>
    <desc>Created with sketchtool.</desc>
    <defs></defs>
    <g id="Final" stroke="none" stroke-width="1" fill="none" fill-rule="evenodd" sketch:type="MSPage">
        <g id="5-Dashboard" sketch:type="MSArtboardGroup" transform="translate(-290.000000, -117.000000)" fill="#FFFFFF">
            <g id="Risk-Assessment" sketch:type="MSLayerGroup" transform="translate(270.000000, 100.000000)">
                <path d="M35.8045853,24.5285049 L33.4479432,22.1715295 C33.1876126,21.9111988 32.7652837,21.9111988 32.5049531,22.1715295 C32.2446224,22.4318601 32.2446224,22.854189 32.5049531,23.114353 L33.7239404,24.3333403 L28.6666597,24.3333403 L28.6666597,19.276393 L29.8853137,20.4950469 C30.1456443,20.7553775 30.5679732,20.7553775 30.8283039,20.4950469 C31.0886345,20.2347163 31.0886345,19.812554 30.8283039,19.5522234 L28.4713284,17.195248 C28.2109978,16.9349173 27.7886689,16.9349173 27.5285049,17.195248 L25.1715295,19.5523901 C24.9111988,19.8127207 24.9111988,20.2350496 25.1715295,20.4952136 C25.4318601,20.7555442 25.8540223,20.7555442 26.1141863,20.4952136 L27.3333403,19.276393 L27.3333403,24.3333403 L22.2762263,24.3333403 L23.4950469,23.1145196 C23.7553775,22.854189 23.7553775,22.4320267 23.4950469,22.1716961 C23.2347163,21.9113655 22.8123874,21.9113655 22.5520567,22.1716961 L20.195248,24.5285049 C19.9349173,24.7888355 19.9349173,25.2108311 20.195248,25.4713284 L22.5525567,27.8284705 C22.8128874,28.0888011 23.2350496,28.0888011 23.4952136,27.8284705 C23.7555442,27.5683066 23.7555442,27.1461443 23.4952136,26.8858137 L22.2762263,25.6666597 L27.3333403,25.6666597 L27.3333403,30.7239404 L26.1146863,29.5049531 C25.8543557,29.2447891 25.4320267,29.2447891 25.1716961,29.5049531 C24.9113655,29.7652837 24.9113655,30.1876126 25.1716961,30.4479432 L27.5286716,32.8049187 C27.7890022,33.0650826 28.2113311,33.0650826 28.4714951,32.8049187 L30.8288039,30.4477766 C31.0891345,30.1874459 31.0891345,29.765117 30.8288039,29.5047864 C30.5684732,29.2446224 30.1461443,29.2446224 29.8858137,29.5047864 L28.6666597,30.7239404 L28.6666597,25.6666597 L33.7237737,25.6666597 L32.5049531,26.8853137 C32.2446224,27.1456443 32.2446224,27.5679732 32.5049531,27.8283039 C32.7652837,28.0886345 33.1876126,28.0886345 33.4479432,27.8283039 L35.8049187,25.4711617 C36.0650826,25.2113311 36.0650826,24.7888355 35.8045853,24.5285049 L35.8045853,24.5285049 Z" id="Icon-Move" sketch:type="MSShapeGroup"></path>
            </g>
        </g>
    </g>
</svg>