<?xml version="1.0" encoding="UTF-8" standalone="no"?>
<svg width="20px" height="20px" viewBox="0 0 20 20" version="1.1" xmlns="http://www.w3.org/2000/svg" xmlns:xlink="http://www.w3.org/1999/xlink" xmlns:sketch="http://www.bohemiancoding.com/sketch/ns">
    <!-- Generator: sketchtool 3.4 (375) - http://www.bohemiancoding.com/sketch -->
    <title>Fill 48</title>
    <desc>Created with sketchtool.</desc>
    <defs></defs>
    <g id="Final" stroke="none" stroke-width="1" fill="none" fill-rule="evenodd" sketch:type="MSPage">
        <g id="5-Dashboard" sketch:type="MSArtboardGroup" transform="translate(-964.000000, -1204.000000)" fill="#FFFFFF">
            <g id="General-Financials" sketch:type="MSLayerGroup" transform="translate(690.000000, 1120.000000)">
                <g id="3.5-+-SCORE" transform="translate(20.000000, 61.000000)" sketch:type="MSShapeGroup">
                    <path d="M272.75,40.5 C272.75,41.1875 272.19,41.75 271.5,41.75 L256.5,41.75 C255.81,41.75 255.25,41.1875 255.25,40.5 L255.25,25.5 C255.25,24.81 255.81,24.25 256.5,24.25 L271.5,24.25 C272.19,24.25 272.75,24.81 272.75,25.5 L272.75,40.5 L272.75,40.5 Z M271.5,23 L256.5,23 C255.119375,23 254,24.119375 254,25.5 L254,40.5 C254,41.88125 255.119375,43 256.5,43 L271.5,43 C272.880625,43 274,41.88125 274,40.5 L274,25.5 C274,24.119375 272.880625,23 271.5,23 L271.5,23 Z M264.485625,30.0525 C264.355,29.920625 264.18125,29.864375 264.01,29.87375 C263.838125,29.864375 263.665,29.920625 263.53375,30.0525 L257.945625,35.6625 C257.700625,35.90625 257.700625,36.30625 257.945625,36.55625 C258.191875,36.8 258.59,36.8 258.835,36.55625 L264.01,31.36 L269.184375,36.55625 C269.43,36.8 269.828125,36.8 270.07375,36.55625 C270.31875,36.30625 270.31875,35.90625 270.07375,35.6625 L264.485625,30.0525 L264.485625,30.0525 Z" id="Fill-48"></path>
                </g>
            </g>
        </g>
    </g>
</svg>