<?xml version="1.0" encoding="UTF-8" standalone="no"?>
<svg width="20px" height="20px" viewBox="0 0 20 20" version="1.1" xmlns="http://www.w3.org/2000/svg" xmlns:xlink="http://www.w3.org/1999/xlink" xmlns:sketch="http://www.bohemiancoding.com/sketch/ns">
    <!-- Generator: sketchtool 3.4 (375) - http://www.bohemiancoding.com/sketch -->
    <title>Icon-4</title>
    <desc>Created with sketchtool.</desc>
    <defs></defs>
    <g id="Final" stroke="none" stroke-width="1" fill="none" fill-rule="evenodd" sketch:type="MSPage">
        <g id="5-Dashboard" sketch:type="MSArtboardGroup" transform="translate(-22.000000, -309.000000)" fill="#FFFFFF" opacity="0.4">
            <g id="Sidebar" sketch:type="MSLayerGroup" transform="translate(0.000000, 80.000000)">
                <g id="Group" transform="translate(22.000000, 130.000000)" sketch:type="MSShapeGroup">
                    <g id="Risk-Indicators-+-Shape-+-Shape" transform="translate(0.000000, 99.000000)">
                        <path d="M16.25,20 L3.75,20 C1.67875,20 0,18.32125 0,16.25 L0,3.75 C0,1.67875 1.67875,0 3.75,0 L16.25,0 C18.32,0 20,1.67875 20,3.75 L20,16.25 C20,18.32125 18.32,20 16.25,20 L16.25,20 Z M17.5,3.75 C17.5,3.05875 16.94125,2.5 16.25,2.5 L3.75,2.5 C3.06,2.5 2.5,3.05875 2.5,3.75 L2.5,16.25 C2.5,16.94125 3.06,17.5 3.75,17.5 L16.25,17.5 C16.94125,17.5 17.5,16.94125 17.5,16.25 L17.5,3.75 L17.5,3.75 Z M14.375,15 C13.5625,15 12.88625,14.475 12.6275,13.75 L9.8725,13.75 C9.61375,14.475 8.9375,15 8.125,15 C7.08875,15 6.25,14.16 6.25,13.125 C6.25,12.09 7.08875,11.25 8.125,11.25 C8.9375,11.25 9.61375,11.775 9.8725,12.5 L12.62625,12.5 C12.885,11.775 13.56125,11.25 14.37375,11.25 C15.40875,11.25 16.24875,12.09 16.24875,13.125 C16.24875,14.16 15.41,15 14.375,15 L14.375,15 Z M14.375,12.5 C14.03125,12.5 13.75,12.78 13.75,13.125 C13.75,13.47 14.03125,13.75 14.375,13.75 C14.71875,13.75 15,13.47 15,13.125 C15,12.78 14.71875,12.5 14.375,12.5 L14.375,12.5 Z M11.875,8.75 C11.0625,8.75 10.38625,8.225 10.1275,7.5 L7.37375,7.5 C7.11375,8.225 6.43875,8.75 5.625,8.75 C4.58875,8.75 3.75,7.91 3.75,6.875 C3.75,5.84 4.58875,5 5.625,5 C6.43875,5 7.11375,5.525 7.37375,6.25 L10.1275,6.25 C10.38625,5.525 11.0625,5 11.875,5 C12.91,5 13.75,5.84 13.75,6.875 C13.75,7.91 12.91,8.75 11.875,8.75 L11.875,8.75 Z M5.625,6.25 C5.28,6.25 5,6.53 5,6.875 C5,7.22 5.28,7.5 5.625,7.5 C5.97,7.5 6.25,7.22 6.25,6.875 C6.25,6.53 5.97,6.25 5.625,6.25 L5.625,6.25 Z" id="Icon-4"></path>
                    </g>
                </g>
            </g>
        </g>
    </g>
</svg>