<?xml version="1.0" encoding="UTF-8" standalone="no"?>
<svg width="20px" height="20px" viewBox="0 0 20 20" version="1.1" xmlns="http://www.w3.org/2000/svg" xmlns:xlink="http://www.w3.org/1999/xlink" xmlns:sketch="http://www.bohemiancoding.com/sketch/ns">
    <!-- Generator: sketchtool 3.4 (375) - http://www.bohemiancoding.com/sketch -->
    <title>Icon-7</title>
    <desc>Created with sketchtool.</desc>
    <defs></defs>
    <g id="Final" stroke="none" stroke-width="1" fill="none" fill-rule="evenodd" sketch:type="MSPage">
        <g id="5-Dashboard" sketch:type="MSArtboardGroup" transform="translate(-22.000000, -408.000000)" fill="#FFFFFF" opacity="0.4">
            <g id="Sidebar" sketch:type="MSLayerGroup" transform="translate(0.000000, 80.000000)">
                <g id="Group" transform="translate(22.000000, 130.000000)" sketch:type="MSShapeGroup">
                    <g id="Risk-Indicators-+-Shape-+-Shape" transform="translate(0.000000, 198.000000)">
                        <path d="M5,7.5 L7.5,7.5 L7.5,5 L5,5 L5,7.5 L5,7.5 Z M5,11.25 L7.5,11.25 L7.5,8.75 L5,8.75 L5,11.25 L5,11.25 Z M5,15 L7.5,15 L7.5,12.5 L5,12.5 L5,15 L5,15 Z M8.75,7.5 L15,7.5 L15,5 L8.75,5 L8.75,7.5 L8.75,7.5 Z M16.25,0 L3.75,0 C1.67875,0 0,1.67875 0,3.75 L0,16.25 C0,18.32 1.67875,20 3.75,20 L16.25,20 C18.32125,20 20,18.32 20,16.25 L20,3.75 C20,1.67875 18.32125,0 16.25,0 L16.25,0 Z M17.5,16.25 C17.5,16.94125 16.94125,17.5 16.25,17.5 L3.75,17.5 C3.05875,17.5 2.5,16.94125 2.5,16.25 L2.5,3.75 C2.5,3.06 3.05875,2.5 3.75,2.5 L16.25,2.5 C16.94125,2.5 17.5,3.06 17.5,3.75 L17.5,16.25 L17.5,16.25 Z M8.75,11.25 L15,11.25 L15,8.75 L8.75,8.75 L8.75,11.25 L8.75,11.25 Z M8.75,15 L15,15 L15,12.5 L8.75,12.5 L8.75,15 L8.75,15 Z" id="Icon-7"></path>
                    </g>
                </g>
            </g>
        </g>
    </g>
</svg>