<?xml version="1.0" encoding="UTF-8" standalone="no"?>
<svg width="16px" height="8px" viewBox="0 0 16 8" version="1.1" xmlns="http://www.w3.org/2000/svg" xmlns:xlink="http://www.w3.org/1999/xlink" xmlns:sketch="http://www.bohemiancoding.com/sketch/ns">
    <!-- Generator: Sketch 3.5.2 (25235) - http://www.bohemiancoding.com/sketch -->
    <title>Icon-Tag</title>
    <desc>Created with Sketch.</desc>
    <defs></defs>
    <g id="Page-1" stroke="none" stroke-width="1" fill="none" fill-rule="evenodd" sketch:type="MSPage">
        <g id="FIFA5-Top-Global-Influencers" sketch:type="MSArtboardGroup" transform="translate(-555.000000, -297.000000)" fill="#FFFFFF">
            <g id="Card-1" sketch:type="MSLayerGroup" transform="translate(270.000000, 180.000000)">
                <g id="Rectangle-162-+-Filter-by-Severity" transform="translate(275.000000, 111.000000)" sketch:type="MSShapeGroup">
                    <path d="M13.1660696,6.76939974 L10.1749386,9.32870562 C9.95433189,9.51746371 9.9403438,9.853801 10.1445151,10.0602254 L13.1891682,13.1384767 C13.6722985,13.6269384 14.5639123,13.9999984 15.2483646,13.9999984 L24.5016379,13.9999984 C25.3298049,13.9999984 26,13.3269678 26,12.4970694 L26,7.50292902 C26,6.67365633 25.3289595,6 24.5016379,6 L15.2483646,6 C14.5776153,6 13.6759876,6.33309783 13.1660696,6.76939974 Z M24.5016379,6.9999998 C24.7758021,6.9999998 25.0000002,7.22507191 25.0000002,7.50292902 L25.0000002,12.4970694 C25.0000002,12.7756261 24.776573,12.9999986 24.5016379,12.9999986 L15.2483646,12.9999986 C14.8313312,12.9999986 14.195643,12.7340204 13.9001442,12.4352607 L10.8554912,9.35700944 L10.8250676,10.0885292 L13.8161986,7.52922332 C14.1449689,7.2479171 14.8160303,6.9999998 15.2483646,6.9999998 L24.5016379,6.9999998 Z M14.75,10.75 C15.1642136,10.75 15.5,10.4142136 15.5,10 C15.5,9.58578644 15.1642136,9.25 14.75,9.25 C14.3357864,9.25 14,9.58578644 14,10 C14,10.4142136 14.3357864,10.75 14.75,10.75 Z" id="Icon-Tag"></path>
                </g>
            </g>
        </g>
    </g>
</svg>