<?xml version="1.0" encoding="UTF-8" standalone="no"?>
<svg width="24px" height="24px" viewBox="0 0 24 24" version="1.1" xmlns="http://www.w3.org/2000/svg" xmlns:xlink="http://www.w3.org/1999/xlink" xmlns:sketch="http://www.bohemiancoding.com/sketch/ns">
    <!-- Generator: sketchtool 3.4.4 (395) - http://www.bohemiancoding.com/sketch -->
    <title>Shape</title>
    <desc>Created with sketchtool.</desc>
    <defs></defs>
    <g id="Use-Case-3" stroke="none" stroke-width="1" fill="none" fill-rule="evenodd" sketch:type="MSPage">
        <g id="FIFA1-Dash" sketch:type="MSArtboardGroup" transform="translate(-1046.000000, -453.000000)" fill="#0B4487">
            <g id="Top-News" sketch:type="MSLayerGroup" transform="translate(690.000000, 440.000000)">
                <path d="M378.909091,25 C378.306636,25 377.818182,25.4884545 377.818182,26.0909091 L377.818182,33.7272727 C377.818182,34.33 377.33,34.8181818 376.727273,34.8181818 L359.272727,34.8181818 C358.67,34.8181818 358.181818,34.33 358.181818,33.7272727 L358.181818,16.2727273 C358.181818,15.67 358.67,15.1818182 359.272727,15.1818182 L366.909091,15.1818182 C367.511545,15.1818182 368,14.6933636 368,14.0909091 C368,13.4884545 367.511545,13 366.909091,13 L359.272727,13 C357.465364,13 356,14.4653636 356,16.2727273 L356,33.7272727 C356,35.5346364 357.465364,37 359.272727,37 L376.727273,37 C378.534636,37 380,35.5346364 380,33.7272727 L380,26.0909091 C380,25.4884545 379.511545,25 378.909091,25 L378.909091,25 Z M380,14.0909091 L380,20.6363636 C380,21.2388182 379.511545,21.7272727 378.909091,21.7272727 C378.306636,21.7272727 377.818182,21.2388182 377.818182,20.6363636 L377.818182,16.7243636 L368.880636,25.6616364 C368.454909,26.0876364 367.764091,26.0876364 367.338364,25.6616364 C366.912364,25.2359091 366.912364,24.5450909 367.338364,24.1190909 L376.275364,15.1818182 L372.363636,15.1818182 C371.761182,15.1818182 371.272727,14.6933636 371.272727,14.0909091 C371.272727,13.4884545 371.761182,13 372.363636,13 L378.909091,13 C379.511545,13 380,13.4884545 380,14.0909091 L380,14.0909091 Z" id="Shape" sketch:type="MSShapeGroup"></path>
            </g>
        </g>
    </g>
</svg>