<?xml version="1.0" encoding="UTF-8" standalone="no"?>
<svg width="32px" height="40px" viewBox="0 0 32 40" version="1.1" xmlns="http://www.w3.org/2000/svg" xmlns:xlink="http://www.w3.org/1999/xlink" xmlns:sketch="http://www.bohemiancoding.com/sketch/ns">
    <!-- Generator: Sketch 3.4.4 (17249) - http://www.bohemiancoding.com/sketch -->
    <title>Icon-DOC-Hover</title>
    <desc>Created with Sketch.</desc>
    <defs>
        <path id="path-1" d="M32,38.4181856 C32,39.2916061 31.3516015,40 30.5507242,40 L1.45061823,40 C0.648957843,40 0,39.2916061 0,38.4181856 L0,1.58061536 C0,0.707085846 0.648957843,0 1.45061823,0 L24.4514602,0 L32,8.36545667 L32,38.4181856 Z"></path>
    </defs>
    <g id="Page-1" stroke="none" stroke-width="1" fill="none" fill-rule="evenodd" sketch:type="MSPage">
        <g id="Icon-DOC-Hover" sketch:type="MSLayerGroup">
            <g id="Shape">
                <use fill="#2C97DE" sketch:type="MSShapeGroup" xlink:href="#path-1"></use>
                <use fill-opacity="0.5" fill="#000000" xlink:href="#path-1"></use>
            </g>
            <path d="M24,0 L24,7.07149189 C24,7.08962959 24.0002884,7.10776617 24.0008651,7.12589489 C24.0312175,8.08004131 24.837202,8.82917279 25.8010819,8.79912689 L32,8.79912689 L24,0 Z" id="Path-18" fill="#227FBB" sketch:type="MSShapeGroup"></path>
            <g id="Group" transform="translate(7.200000, 12.000000)" stroke="#FFFFFF" stroke-width="2" sketch:type="MSShapeGroup" stroke-linecap="round">
                <path d="M0.4,0.8 L10,0.8" id="Line"></path>
                <path d="M0.352,5.6 L17.2626604,5.6" id="Line" stroke-linejoin="round"></path>
                <path d="M0.352,10.4 L17.2626604,10.4" id="Line" stroke-linejoin="round"></path>
                <path d="M0.352,15.2 L17.2626604,15.2" id="Line" stroke-linejoin="round"></path>
            </g>
        </g>
    </g>
</svg>