<?xml version="1.0" encoding="UTF-8" standalone="no"?>
<svg width="50px" height="50px" viewBox="0 0 50 50" version="1.1" xmlns="http://www.w3.org/2000/svg" xmlns:xlink="http://www.w3.org/1999/xlink" xmlns:sketch="http://www.bohemiancoding.com/sketch/ns">
    <!-- Generator: Sketch 3.5 (25232) - http://www.bohemiancoding.com/sketch -->
    <title>Icon-TopNews</title>
    <desc>Created with Sketch.</desc>
    <defs></defs>
    <g id="Use-Case-3" stroke="none" stroke-width="1" fill="none" fill-rule="evenodd" sketch:type="MSPage">
        <g id="FIFA2-Select-Data-Range" sketch:type="MSArtboardGroup" transform="translate(-710.000000, -900.000000)">
            <g id="Top-News" sketch:type="MSLayerGroup" transform="translate(690.000000, 440.000000)">
                <g id="Group-Copy-3" transform="translate(20.000000, 460.000000)" sketch:type="MSShapeGroup">
                    <g id="Icon-TopNews">
                        <circle id="Oval-30" fill="#4A4A4A" cx="25" cy="25" r="25"></circle>
                        <g id="Icon-NewsArticle" transform="translate(15.000000, 15.000000)" fill="#FFFFFF">
                            <path d="M8.12927842,9.375 C7.78173755,9.375 7.5,9.65241551 7.5,10 L7.5,10 C7.5,10.345178 7.78121797,10.625 8.12927842,10.625 L15.6207216,10.625 C15.9682625,10.625 16.25,10.3475845 16.25,10 L16.25,10 C16.25,9.65482203 15.968782,9.375 15.6207216,9.375 L8.12927842,9.375 L8.12927842,9.375 Z M8.12927842,11.875 C7.78173755,11.875 7.5,12.1524155 7.5,12.5 L7.5,12.5 C7.5,12.845178 7.78121797,13.125 8.12927842,13.125 L15.6207216,13.125 C15.9682625,13.125 16.25,12.8475845 16.25,12.5 L16.25,12.5 C16.25,12.154822 15.968782,11.875 15.6207216,11.875 L8.12927842,11.875 L8.12927842,11.875 Z M7.5,4.9986957 L7.5,6.2513043 C7.5,7.28641291 8.34382643,8.125 9.38033137,8.125 L14.3696686,8.125 C15.4067728,8.125 16.25,7.28513845 16.25,6.2513043 L16.25,4.9986957 C16.25,3.96358709 15.4061736,3.125 14.3696686,3.125 L9.38033137,3.125 C8.34322719,3.125 7.5,3.96486155 7.5,4.9986957 L7.5,4.9986957 L7.5,4.9986957 Z M14.3696686,4.375 C14.7175544,4.375 15,4.65569184 15,4.9986957 L15,6.2513043 C15,6.59366094 14.7175335,6.875 14.3696686,6.875 L9.38033137,6.875 C9.03244556,6.875 8.75,6.59430816 8.75,6.2513043 L8.75,4.9986957 C8.75,4.65633906 9.03246649,4.375 9.38033137,4.375 L14.3696686,4.375 L14.3696686,4.375 Z" id="Rectangle-845"></path>
                            <path d="M3.02236461,20 L18.1213675,20 C19.1568776,20 20,19.1610549 20,18.1302394 L20,1.86976064 C20,0.836080955 19.1585028,2.22044605e-15 18.1219084,2.22044605e-15 L5.62809162,0 C4.59190635,0 3.75,0.844583159 3.75,1.87906422 L3.75,14.0477804 C3.75,14.3929584 4.02982203,14.6727804 4.375,14.6727804 C4.72017797,14.6727804 5,14.3929584 5,14.0477804 L5,1.87906422 C5,1.53405239 5.28315211,1.25 5.62809162,1.25 L18.1219084,1.25 C18.4699472,1.25 18.75,1.5282502 18.75,1.86976064 L18.75,18.1302394 C18.75,18.4693053 18.4679077,18.75 18.1213675,18.75 L3.02236461,18.75 L1.77124687,18.75 C1.4260689,18.75 1.14624687,19.029822 1.14624687,19.375 C1.14624687,19.720178 1.4260689,20 1.77124687,20 L3.02236461,20 L3.02236461,20 Z M5,5.62809162 C5,5.32571646 5.00030529,5.02624836 5.00081408,4.7431453 C5.00111931,4.5733159 5.0014246,4.44664713 5.00162755,4.37681606 C5.00263259,4.03093012 4.72251759,3.75 4.37663019,3.75 L1.87336981,3.75 C0.838103767,3.75 1.66533454e-15,4.5910944 1.66533454e-15,5.62809162 L0,18.1219084 C0,19.1583541 0.838937008,20 1.87336981,20 C2.21854778,20 2.49836981,19.720178 2.49836981,19.375 C2.49836981,19.029822 2.21854778,18.75 1.87336981,18.75 C1.53019663,18.75 1.25,18.4688986 1.25,18.1219084 L1.25,5.62809162 C1.25,5.28045559 1.52945838,5 1.87336981,5 L4.37663019,5 L4.37663019,4.375 L3.75163283,4.37318394 C3.75142823,4.44360993 3.7511222,4.5705807 3.7508161,4.74089878 C3.75030603,5.02470816 3.75,5.32491131 3.75,5.62809162 L3.75,11.2554932 C3.75,11.6006711 4.02982203,11.8804932 4.375,11.8804932 C4.72017797,11.8804932 5,11.6006711 5,11.2554932 L5,5.62809162 L5,5.62809162 Z" id="Rectangle-345"></path>
                        </g>
                    </g>
                </g>
            </g>
        </g>
    </g>
</svg>