<?xml version="1.0" encoding="UTF-8" standalone="no"?>
<svg width="32px" height="40px" viewBox="0 0 32 40" version="1.1" xmlns="http://www.w3.org/2000/svg" xmlns:xlink="http://www.w3.org/1999/xlink" xmlns:sketch="http://www.bohemiancoding.com/sketch/ns">
    <!-- Generator: Sketch 3.4.4 (17249) - http://www.bohemiancoding.com/sketch -->
    <title>Icon-PPT</title>
    <desc>Created with Sketch.</desc>
    <defs></defs>
    <g id="Page-1" stroke="none" stroke-width="1" fill="none" fill-rule="evenodd" sketch:type="MSPage">
        <g id="Icon-PPT" sketch:type="MSLayerGroup">
            <path d="M32,38.4181856 C32,39.2916061 31.3516015,40 30.5507242,40 L1.45061823,40 C0.648957843,40 0,39.2916061 0,38.4181856 L0,1.58061536 C0,0.707085846 0.648957843,0 1.45061823,0 L24.4514602,0 L32,8.36545667 L32,38.4181856 Z" id="Shape" fill="#F2B737" sketch:type="MSShapeGroup"></path>
            <path d="M24,0 L24,7.07149189 C24,7.08962959 24.0002884,7.10776617 24.0008651,7.12589489 C24.0312175,8.08004131 24.837202,8.82917279 25.8010819,8.79912689 L32,8.79912689 L24,0 Z" id="Path-18" fill="#C18F21" sketch:type="MSShapeGroup"></path>
            <g id="Group" transform="translate(7.200000, 9.000000)" sketch:type="MSShapeGroup">
                <path d="M0.352,16.4 L17.2626604,16.4" id="Line" stroke="#FFFFFF" stroke-width="2" stroke-linecap="round" stroke-linejoin="round"></path>
                <g id="Oval-487-+-Path-9800" transform="translate(3.000000, 0.000000)" fill="#FFFFFF">
                    <path d="M11.1,7 C11.1,9.89949494 8.74949494,12.25 5.85,12.25 C2.95050506,12.25 0.6,9.89949494 0.6,7 C0.6,4.10050506 2.95050506,1.75 5.85,1.75 L5.85,7 L11.1,7 Z" id="Oval-487"></path>
                    <path d="M11.0284393,1.96848404 C9.75114883,0.429799512 7.10004883,0.5107433 7.10004883,0.5107433 L7.10004883,5.75176346 L12.3500488,5.75176346 C12.3500488,5.75176346 12.3057298,3.50716858 11.0284393,1.96848404 Z" id="Path-9800"></path>
                </g>
                <path d="M0.352,21.2 L17.2626604,21.2" id="Line" stroke="#FFFFFF" stroke-width="2" stroke-linecap="round" stroke-linejoin="round"></path>
            </g>
        </g>
    </g>
</svg>