<?xml version="1.0" encoding="utf-8"?>
<!-- Generator: Adobe Illustrator 19.2.1, SVG Export Plug-In . SVG Version: 6.00 Build 0)  -->
<svg version="1.1" id="Layer_1" xmlns="http://www.w3.org/2000/svg" xmlns:xlink="http://www.w3.org/1999/xlink" x="0px" y="0px"
	 viewBox="0 0 499.1 100.9" style="enable-background:new 0 0 499.1 100.9;" xml:space="preserve">
<style type="text/css">
	.st0{fill:#FFFFFF;}
</style>
<g id="logo">
	<g>
		<g id="XMLID_17_">
			<path id="XMLID_26_" class="st0" d="M279.4,62.2c0,1.2-0.8,1.8-2.3,1.8h-35.5c-0.3,2.3-0.4,4.7-0.4,7.2c0,6.9,1.6,12.3,4.9,16
				c3.3,3.7,8,5.6,14.1,5.6c3.1,0,6.1-0.8,9.3-2.5c3.1-1.6,5.6-3.7,7.5-6.3l0.3-0.1c0.4,0,0.8,0.2,1.1,0.7c0.4,0.5,0.5,1,0.5,1.7
				c0,0.9-1.4,2.8-4.1,5.7c-2.8,2.9-5.8,5.1-9,6.6s-6.6,2.3-10.2,2.3c-7.8,0-14.3-2.8-19.6-8.5s-8-12.7-8-21
				c0-8.5,2.6-15.6,7.8-21.5s11.8-8.8,19.8-8.8c6.7,0,12.3,2.2,16.9,6.6C277.1,52.1,279.4,56.9,279.4,62.2z M267.6,56.5
				c0-3.2-1.1-5.9-3.3-8.1c-2.2-2.1-5.1-3.2-8.6-3.2c-3.3,0-6.2,1.4-8.6,4.2c-2.4,2.8-4.1,6.4-4.9,11l18-0.5c2.7,0,4.6-0.3,5.8-0.8
				C267.1,58.7,267.6,57.8,267.6,56.5z"/>
			<path id="XMLID_24_" class="st0" d="M357.6,97.2c0,1.2-0.3,1.8-1,1.8c-1.7,0-3.8-0.1-6.3-0.4c-2.8-0.3-5.2-0.4-7.3-0.4
				c-2.2,0-4.6,0.1-7.4,0.4c-2.5,0.3-4.7,0.4-6.4,0.4c-0.7,0-1-0.6-1-1.8c0-1.1,0.3-1.7,1-1.7c3-0.3,4.9-1.2,5.9-2.5
				c0.9-1.3,1.4-4.1,1.4-8.4V62.9c0-4.8-0.9-8.4-2.8-10.6c-1.9-2.2-4.8-3.4-8.8-3.4c-2.5,0-4.7,0.5-6.6,1.4s-4,2.6-6.2,5v29.1
				c0,4.3,0.5,7.1,1.4,8.4s2.9,2.2,5.9,2.5c0.7,0.1,1,0.7,1,1.7c0,1.2-0.3,1.8-1,1.8c-1.8,0-3.9-0.1-6.5-0.4
				c-2.8-0.3-5.3-0.4-7.4-0.4s-4.5,0.1-7.2,0.4c-2.5,0.3-4.7,0.4-6.5,0.4c-0.7,0-1-0.6-1-1.8c0-1.1,0.3-1.7,1-1.7
				c3.7-0.5,6.1-1.4,7.2-2.7c1.1-1.3,1.6-4.1,1.6-8.2V60.6c0-3.4-0.4-5.7-1.3-6.8s-2.9-1.8-5.9-2.1c-0.7,0-1-0.6-1-1.7
				c0-1.1,0.3-1.6,1-1.6c4.3-1.1,7.8-2.3,10.7-3.7c2.8-1.4,4.6-2.5,5.4-3.3c0.4-0.5,0.9-0.8,1.4-0.8c1.2,0,1.8,0.3,1.8,1l-0.5,8.2
				c6.2-5.8,12-8.7,17.3-8.7c5.9,0,10.4,1.7,13.7,5c3.3,3.4,4.9,7.9,4.9,13.6v24.7c0,4.2,0.5,7,1.6,8.3s3.4,2.2,7.1,2.7
				C357.2,95.5,357.6,96.1,357.6,97.2z"/>
			<path id="XMLID_21_" class="st0" d="M417.3,62.2c0,1.2-0.8,1.8-2.3,1.8h-35.5c-0.3,2.3-0.4,4.7-0.4,7.2c0,6.9,1.6,12.3,4.9,16
				s8,5.6,14.1,5.6c3.1,0,6.1-0.8,9.3-2.5c3.1-1.6,5.6-3.7,7.5-6.3l0.3-0.1c0.4,0,0.8,0.2,1.1,0.7c0.4,0.5,0.5,1,0.5,1.7
				c0,0.9-1.4,2.8-4.1,5.7c-2.8,2.9-5.8,5.1-9,6.6s-6.6,2.3-10.2,2.3c-7.8,0-14.3-2.8-19.6-8.5c-5.3-5.7-8-12.7-8-21
				c0-8.5,2.6-15.6,7.8-21.5c5.2-5.9,11.8-8.8,19.8-8.8c6.7,0,12.3,2.2,16.9,6.6C415.1,52.1,417.3,56.9,417.3,62.2z M405.6,56.5
				c0-3.2-1.1-5.9-3.3-8.1c-2.2-2.1-5.1-3.2-8.6-3.2c-3.3,0-6.2,1.4-8.6,4.2s-4.1,6.4-4.9,11l18-0.5c2.7,0,4.6-0.3,5.8-0.8
				C405,58.7,405.6,57.8,405.6,56.5z"/>
			<path id="XMLID_18_" class="st0" d="M490.2,71.4c0,8.6-2.8,15.6-8.4,21.2c-5.6,5.5-12.8,8.3-21.7,8.3c-8.9,0-16.1-2.8-21.8-8.3
				c-5.6-5.6-8.4-12.6-8.4-21.2c0-8.7,2.8-15.9,8.5-21.6c5.7-5.8,12.9-8.6,21.7-8.6c8.9,0,16.1,2.9,21.7,8.6
				C487.4,55.5,490.2,62.7,490.2,71.4z M477.1,71.3c0-7.9-1.5-14.2-4.6-18.9c-3-4.7-7.2-7.1-12.5-7.1s-9.4,2.4-12.5,7.1
				s-4.6,11-4.6,18.9c0,7.8,1.5,14,4.5,18.6s7.2,6.9,12.6,6.9c5.3,0,9.5-2.3,12.6-6.8C475.6,85.4,477.1,79.2,477.1,71.3z"/>
		</g>
		<path class="st0" d="M190.1,0.3L190.1,0.3h-47.2c0.4,5.9,0.6,11.1,0.7,23.6h4.3l0.8-5.5c0.7-5.5,1.4-8.6,2.1-9.7
			c0.4-0.6,1.4-1,2.8-1.2c4.6-0.6,7.4-0.8,13.9-0.9h14.9l0.5,15.4c0.1,3,0.2,5.7,0.2,8.4v34c-0.3,15.9-0.5,18-0.5,19.3
			c-0.2,4.7-0.7,7.6-1.4,8.8c-0.5,0.9-1.6,1.6-3.2,2.1c-1.6,0.5-7.2,2.1-14.4,2.3v3.2c13.7-0.4,22.6-0.6,26.5-0.7l0,0
			c4,0.1,12.8,0.3,26.5,0.7v-3.2c-7.2-0.1-12.9-1.7-14.4-2.3c-1.6-0.5-2.6-1.2-3.2-2.1c-0.8-1.2-1.3-4.1-1.4-8.8
			c0-1.3-0.1-3.4-0.5-19.3V30.5c0-2.5,0.1-5.5,0.2-8.5l0.5-15.4h14.9c5.7,0.1,9.3,0.3,13.9,0.9c1.5,0.2,2.4,0.6,2.8,1.2
			c0.7,1,1.3,4.3,2,9.9l0.8,5.3h4.3c0.1-12.5,0.3-17.7,0.7-23.6C237.2,0.3,190.1,0.3,190.1,0.3z"/>
	</g>
	<g>
		<rect id="XMLID_4_" x="75.3" y="40.9" class="st0" width="22.1" height="59"/>
		<polygon id="XMLID_3_" class="st0" points="23,40.9 23,21.9 97.4,21.9 97.4,0 0,0 0,99.9 56.2,99.9 56.2,40.9 		"/>
	</g>
	<g>
		<path class="st0" d="M493,38.3c1,0,2,0.3,3,0.8s1.7,1.3,2.3,2.3s0.8,2,0.8,3.1s-0.3,2.1-0.8,3c-0.5,1-1.3,1.7-2.3,2.3
			c-1,0.5-2,0.8-3,0.8c-1.1,0-2.1-0.3-3-0.8c-1-0.5-1.7-1.3-2.3-2.3s-0.8-2-0.8-3c0-1.1,0.3-2.1,0.8-3.1s1.3-1.7,2.3-2.3
			C490.9,38.5,491.9,38.3,493,38.3z M493,39.3c-0.9,0-1.7,0.2-2.5,0.7c-0.8,0.4-1.4,1.1-1.9,1.9c-0.5,0.8-0.7,1.7-0.7,2.5
			c0,0.9,0.2,1.7,0.7,2.5s1.1,1.4,1.9,1.9c0.8,0.4,1.7,0.7,2.5,0.7c0.9,0,1.7-0.2,2.5-0.7c0.8-0.4,1.4-1.1,1.9-1.9
			c0.4-0.8,0.7-1.6,0.7-2.5s-0.2-1.7-0.7-2.5s-1.1-1.4-1.9-1.9C494.6,39.5,493.8,39.3,493,39.3z M490.3,47.7v-6.6h2.3
			c0.8,0,1.3,0.1,1.7,0.2c0.3,0.1,0.6,0.3,0.8,0.6c0.2,0.3,0.3,0.6,0.3,1c0,0.5-0.2,0.9-0.5,1.3c-0.3,0.4-0.8,0.6-1.4,0.6
			c0.2,0.1,0.4,0.2,0.6,0.3c0.3,0.3,0.6,0.7,1,1.3l0.8,1.3h-1.3l-0.6-1c-0.5-0.8-0.8-1.3-1.1-1.5c-0.2-0.2-0.5-0.2-0.8-0.2h-0.6v2.8
			L490.3,47.7L490.3,47.7z M491.3,44.1h1.3c0.6,0,1-0.1,1.3-0.3c0.2-0.2,0.3-0.4,0.3-0.7c0-0.2-0.1-0.4-0.2-0.5
			c-0.1-0.2-0.3-0.3-0.4-0.3c-0.2-0.1-0.5-0.1-1.1-0.1h-1.2L491.3,44.1L491.3,44.1z"/>
	</g>
</g>
</svg>
