<?xml version="1.0" encoding="UTF-8" standalone="no"?>
<svg width="20px" height="25px" viewBox="0 0 20 25" version="1.1" xmlns="http://www.w3.org/2000/svg" xmlns:xlink="http://www.w3.org/1999/xlink" xmlns:sketch="http://www.bohemiancoding.com/sketch/ns">
    <!-- Generator: sketchtool 3.4 (375) - http://www.bohemiancoding.com/sketch -->
    <title>Icon-User-White</title>
    <desc>Created with sketchtool.</desc>
    <defs></defs>
    <g id="Final" stroke="none" stroke-width="1" fill="none" fill-rule="evenodd" sketch:type="MSPage">
        <g id="1-Login" sketch:type="MSArtboardGroup" transform="translate(-1455.000000, -27.000000)" fill="#FFFFFF">
            <g id="Navigation-Bar" sketch:type="MSLayerGroup">
                <g id="Oval-1-Copy-+-Analyst-Name" transform="translate(1440.000000, 15.000000)" sketch:type="MSShapeGroup">
                    <path d="M35,33.0937429 C35,27.4842262 30.5235956,22.9375 25,22.9375 C19.4803868,22.9375 15,27.488861 15,33.0890992 L15,36.1547363 C15,36.5862087 15.3443963,36.9359863 15.7692308,36.9359863 C16.1940652,36.9359863 16.5384615,36.5862087 16.5384615,36.1547363 L16.5384615,33.0890992 C16.5384615,28.3517315 20.3301289,24.5 25,24.5 C29.6738981,24.5 33.4615385,28.347142 33.4615385,33.0937429 L33.4615385,36.1500854 C33.4615385,36.5815579 33.8059348,36.9313354 34.2307692,36.9313354 C34.6556037,36.9313354 35,36.5815579 35,36.1500854 L35,33.0937429 L35,33.0937429 Z M30.3846154,17.46875 C30.3846154,14.4484428 27.973841,12 25,12 C22.026159,12 19.6153846,14.4484428 19.6153846,17.46875 C19.6153846,20.4890572 22.026159,22.9375 25,22.9375 C27.973841,22.9375 30.3846154,20.4890572 30.3846154,17.46875 L30.3846154,17.46875 Z M21.1538462,17.46875 C21.1538462,15.3113877 22.8758279,13.5625 25,13.5625 C27.1241721,13.5625 28.8461538,15.3113877 28.8461538,17.46875 C28.8461538,19.6261123 27.1241721,21.375 25,21.375 C22.8758279,21.375 21.1538462,19.6261123 21.1538462,17.46875 L21.1538462,17.46875 Z" id="Icon-User-White"></path>
                </g>
            </g>
        </g>
    </g>
</svg>