<?xml version="1.0" encoding="UTF-8" standalone="no"?>
<svg width="12px" height="20px" viewBox="0 0 12 20" version="1.1" xmlns="http://www.w3.org/2000/svg" xmlns:xlink="http://www.w3.org/1999/xlink" xmlns:sketch="http://www.bohemiancoding.com/sketch/ns">
    <!-- Generator: sketchtool 3.4 (375) - http://www.bohemiancoding.com/sketch -->
    <title>Icon-Password</title>
    <desc>Created with sketchtool.</desc>
    <defs></defs>
    <g id="Final" stroke="none" stroke-width="1" fill="none" fill-rule="evenodd" sketch:type="MSPage">
        <g id="1-Login" sketch:type="MSArtboardGroup" transform="translate(-609.000000, -455.000000)">
            <g id="Rectangle-102-+-Rectangle-102" sketch:type="MSLayerGroup" transform="translate(565.000000, 180.000000)">
                <g id="Icon-Password" transform="translate(40.000000, 275.000000)" sketch:type="MSShapeGroup">
                    <g transform="translate(4.000000, 0.000000)">
                        <rect id="Rectangle-904" fill="#2A2630" x="5.375" y="12.5" width="1.25" height="3.75" rx="40"></rect>
                        <path d="M7.875,9.0700732 C7.875,8.70267426 7.875,8.25706301 7.875,7.48068121 L7.875,4.48874233 L7.875,3.1287701 C7.875,2.09224721 7.03311467,1.25 6,1.25 C4.96372815,1.25 4.125,2.08764943 4.125,3.12173605 L4.125,9.0700732 C4.71146048,8.86278916 5.34255858,8.75 6,8.75 C6.65744142,8.75 7.28853952,8.86278916 7.875,9.0700732 L7.875,9.0700732 L7.875,9.0700732 Z M2.875,9.69721815 L2.875,3.12173605 C2.875,1.39655552 4.27411016,0 6,0 C7.722378,0 9.125,1.40079809 9.125,3.1287701 L9.125,9.69721815 C10.6324822,10.7062948 11.625,12.4247399 11.625,14.375 C11.625,17.4816017 9.10660172,20 6,20 C2.89339828,20 0.375,17.4816017 0.375,14.375 C0.375,12.4247399 1.36751782,10.7062948 2.875,9.69721815 L2.875,9.69721815 L2.875,9.69721815 Z M6,18.75 C8.41624578,18.75 10.375,16.7912458 10.375,14.375 C10.375,11.9587542 8.41624578,10 6,10 C3.58375422,10 1.625,11.9587542 1.625,14.375 C1.625,16.7912458 3.58375422,18.75 6,18.75 L6,18.75 Z" id="Rectangle-903" fill="#95909E"></path>
                    </g>
                </g>
            </g>
        </g>
    </g>
</svg>