<?xml version="1.0" encoding="UTF-8" standalone="no"?>
<svg width="18px" height="20px" viewBox="0 0 18 20" version="1.1" xmlns="http://www.w3.org/2000/svg" xmlns:xlink="http://www.w3.org/1999/xlink" xmlns:sketch="http://www.bohemiancoding.com/sketch/ns">
    <!-- Generator: sketchtool 3.4 (375) - http://www.bohemiancoding.com/sketch -->
    <title>Icon-User</title>
    <desc>Created with sketchtool.</desc>
    <defs></defs>
    <g id="Final" stroke="none" stroke-width="1" fill="none" fill-rule="evenodd" sketch:type="MSPage">
        <g id="1-Login" sketch:type="MSArtboardGroup" transform="translate(-606.000000, -395.000000)" fill="#95909E">
            <g id="Rectangle-102-+-Rectangle-102" sketch:type="MSLayerGroup" transform="translate(565.000000, 180.000000)">
                <g id="Icon-User" transform="translate(40.000000, 215.000000)" sketch:type="MSShapeGroup">
                    <path d="M18.125,16.8749944 C18.125,12.3873809 14.4879214,8.75 10,8.75 C5.51531425,8.75 1.875,12.3910888 1.875,16.8712793 L1.875,19.323789 C1.875,19.668967 2.15482203,19.948789 2.5,19.948789 C2.84517797,19.948789 3.125,19.668967 3.125,19.323789 L3.125,16.8712793 C3.125,13.0813852 6.20572973,10 10,10 C13.7975422,10 16.875,13.0777136 16.875,16.8749944 L16.875,19.3200684 C16.875,19.6652463 17.154822,19.9450684 17.5,19.9450684 C17.845178,19.9450684 18.125,19.6652463 18.125,19.3200684 L18.125,16.8749944 L18.125,16.8749944 Z M14.375,4.375 C14.375,1.95875422 12.4162458,0 10,0 C7.58375422,0 5.625,1.95875422 5.625,4.375 C5.625,6.79124578 7.58375422,8.75 10,8.75 C12.4162458,8.75 14.375,6.79124578 14.375,4.375 L14.375,4.375 Z M6.875,4.375 C6.875,2.64911016 8.27411016,1.25 10,1.25 C11.7258898,1.25 13.125,2.64911016 13.125,4.375 C13.125,6.10088984 11.7258898,7.5 10,7.5 C8.27411016,7.5 6.875,6.10088984 6.875,4.375 L6.875,4.375 Z"></path>
                </g>
            </g>
        </g>
    </g>
</svg>